# xmcd
#
# Track frame offsets: 
#        150
#        28920
#        95138
#        141645
#
# Disc length: 2527 seconds
#
# Revision: 3
# Processed by: cddbd v1.5.2PL0 Copyright (c) Steve Scherf et al.
# Submitted via: ExactAudioCopy v1.0b3
#
DISCID=3c09dd04
DTITLE=John Coltrane - Feelin' Good [CD1)
DYEAR=1965
DGENRE=Jazz
TTITLE0=Feelin' Good
TTITLE1=My Favorite Things
TTITLE2=Living Space
TTITLE3=Untitled 90320
EXTD=
EXTT0=
EXTT1=
EXTT2=
EXTT3=
PLAYORDER=
